<?xml version="1.0" encoding="UTF-8" standalone="no"?>
<!DOCTYPE svg PUBLIC "-//W3C//DTD SVG 1.1//EN"
 "http://www.w3.org/Graphics/SVG/1.1/DTD/svg11.dtd">
<!-- Generated by graphviz version 2.43.0 (0)
 -->
<!-- Title: path Pages: 1 -->
<svg width="350pt" height="44pt"
 viewBox="0.00 0.00 350.00 44.00" xmlns="http://www.w3.org/2000/svg" xmlns:xlink="http://www.w3.org/1999/xlink">
<g id="graph0" class="graph" transform="scale(1 1) rotate(0) translate(4 40)">
<title>path</title>
<polygon fill="white" stroke="transparent" points="-4,4 -4,-40 346,-40 346,4 -4,4"/>
<!-- v1 -->
<g id="node1" class="node">
<title>v1</title>
<ellipse fill="none" stroke="black" cx="27" cy="-18" rx="27" ry="18"/>
<text text-anchor="middle" x="27" y="-14.3" font-family="Times,serif" font-size="14.00">v1</text>
</g>
<!-- v2 -->
<g id="node2" class="node">
<title>v2</title>
<ellipse fill="none" stroke="black" cx="99" cy="-18" rx="27" ry="18"/>
<text text-anchor="middle" x="99" y="-14.3" font-family="Times,serif" font-size="14.00">v2</text>
</g>
<!-- v1&#45;&#45;v2 -->
<g id="edge1" class="edge">
<title>v1&#45;&#45;v2</title>
<path fill="none" stroke="black" d="M54,-18C59.98,-18 65.95,-18 71.93,-18"/>
</g>
<!-- v3 -->
<g id="node3" class="node">
<title>v3</title>
<ellipse fill="none" stroke="black" cx="171" cy="-18" rx="27" ry="18"/>
<text text-anchor="middle" x="171" y="-14.3" font-family="Times,serif" font-size="14.00">v3</text>
</g>
<!-- v2&#45;&#45;v3 -->
<g id="edge2" class="edge">
<title>v2&#45;&#45;v3</title>
<path fill="none" stroke="black" d="M126,-18C131.98,-18 137.95,-18 143.93,-18"/>
</g>
<!-- v4 -->
<g id="node4" class="node">
<title>v4</title>
<ellipse fill="none" stroke="black" cx="243" cy="-18" rx="27" ry="18"/>
<text text-anchor="middle" x="243" y="-14.3" font-family="Times,serif" font-size="14.00">v4</text>
</g>
<!-- v3&#45;&#45;v4 -->
<g id="edge3" class="edge">
<title>v3&#45;&#45;v4</title>
<path fill="none" stroke="black" d="M198,-18C203.98,-18 209.95,-18 215.93,-18"/>
</g>
<!-- v5 -->
<g id="node5" class="node">
<title>v5</title>
<ellipse fill="none" stroke="black" cx="315" cy="-18" rx="27" ry="18"/>
<text text-anchor="middle" x="315" y="-14.3" font-family="Times,serif" font-size="14.00">v5</text>
</g>
<!-- v4&#45;&#45;v5 -->
<g id="edge4" class="edge">
<title>v4&#45;&#45;v5</title>
<path fill="none" stroke="black" d="M270,-18C275.98,-18 281.95,-18 287.93,-18"/>
</g>
</g>
</svg>
