<?xml version="1.0" encoding="UTF-8" standalone="no"?>
<!DOCTYPE svg PUBLIC "-//W3C//DTD SVG 1.1//EN"
 "http://www.w3.org/Graphics/SVG/1.1/DTD/svg11.dtd">
<!-- Generated by graphviz version 2.43.0 (0)
 -->
<!-- Title: complete Pages: 1 -->
<svg width="310pt" height="148pt"
 viewBox="0.00 0.00 310.00 148.00" xmlns="http://www.w3.org/2000/svg" xmlns:xlink="http://www.w3.org/1999/xlink">
<g id="graph0" class="graph" transform="scale(1 1) rotate(0) translate(4 144)">
<title>complete</title>
<polygon fill="white" stroke="transparent" points="-4,4 -4,-144 306,-144 306,4 -4,4"/>
<g id="clust1" class="cluster">
<title>cluster_aa</title>
<polygon fill="none" stroke="black" points="44,-80 44,-132 258,-132 258,-80 44,-80"/>
</g>
<g id="clust2" class="cluster">
<title>cluster_dd</title>
<polygon fill="none" stroke="black" points="8,-8 8,-60 294,-60 294,-8 8,-8"/>
</g>
<!-- a -->
<g id="node1" class="node">
<title>a</title>
<ellipse fill="none" stroke="black" cx="223" cy="-106" rx="27" ry="18"/>
<text text-anchor="middle" x="223" y="-102.3" font-family="Times,serif" font-size="14.00">a</text>
</g>
<!-- d -->
<g id="node4" class="node">
<title>d</title>
<ellipse fill="none" stroke="black" cx="115" cy="-34" rx="27" ry="18"/>
<text text-anchor="middle" x="115" y="-30.3" font-family="Times,serif" font-size="14.00">d</text>
</g>
<!-- a&#45;&#45;d -->
<g id="edge1" class="edge">
<title>a&#45;&#45;d</title>
<path fill="none" stroke="black" d="M205.29,-92.18C199.54,-88.16 193.07,-83.78 187,-80 171.46,-70.32 166.54,-69.68 151,-60 144.93,-56.22 138.46,-51.84 132.71,-47.82"/>
</g>
<!-- g -->
<g id="node7" class="node">
<title>g</title>
<ellipse fill="none" stroke="black" cx="259" cy="-34" rx="27" ry="18"/>
<text text-anchor="middle" x="259" y="-30.3" font-family="Times,serif" font-size="14.00">g</text>
</g>
<!-- a&#45;&#45;g -->
<g id="edge2" class="edge">
<title>a&#45;&#45;g</title>
<path fill="none" stroke="black" d="M231.35,-88.76C237.17,-77.46 244.89,-62.44 250.7,-51.15"/>
</g>
<!-- b -->
<g id="node2" class="node">
<title>b</title>
<ellipse fill="none" stroke="black" cx="151" cy="-106" rx="27" ry="18"/>
<text text-anchor="middle" x="151" y="-102.3" font-family="Times,serif" font-size="14.00">b</text>
</g>
<!-- b&#45;&#45;d -->
<g id="edge4" class="edge">
<title>b&#45;&#45;d</title>
<path fill="none" stroke="black" d="M142.65,-88.76C136.83,-77.46 129.11,-62.44 123.3,-51.15"/>
</g>
<!-- e -->
<g id="node5" class="node">
<title>e</title>
<ellipse fill="none" stroke="black" cx="187" cy="-34" rx="27" ry="18"/>
<text text-anchor="middle" x="187" y="-30.3" font-family="Times,serif" font-size="14.00">e</text>
</g>
<!-- b&#45;&#45;e -->
<g id="edge3" class="edge">
<title>b&#45;&#45;e</title>
<path fill="none" stroke="black" d="M159.35,-88.76C165.17,-77.46 172.89,-62.44 178.7,-51.15"/>
</g>
<!-- c -->
<g id="node3" class="node">
<title>c</title>
<ellipse fill="none" stroke="black" cx="79" cy="-106" rx="27" ry="18"/>
<text text-anchor="middle" x="79" y="-102.3" font-family="Times,serif" font-size="14.00">c</text>
</g>
<!-- c&#45;&#45;d -->
<g id="edge6" class="edge">
<title>c&#45;&#45;d</title>
<path fill="none" stroke="black" d="M87.35,-88.76C93.17,-77.46 100.89,-62.44 106.7,-51.15"/>
</g>
<!-- f -->
<g id="node6" class="node">
<title>f</title>
<ellipse fill="none" stroke="black" cx="43" cy="-34" rx="27" ry="18"/>
<text text-anchor="middle" x="43" y="-30.3" font-family="Times,serif" font-size="14.00">f</text>
</g>
<!-- c&#45;&#45;f -->
<g id="edge5" class="edge">
<title>c&#45;&#45;f</title>
<path fill="none" stroke="black" d="M70.65,-88.76C64.83,-77.46 57.11,-62.44 51.3,-51.15"/>
</g>
</g>
</svg>
