<?xml version="1.0" encoding="UTF-8" standalone="no"?>
<!DOCTYPE svg PUBLIC "-//W3C//DTD SVG 1.1//EN"
 "http://www.w3.org/Graphics/SVG/1.1/DTD/svg11.dtd">
<!-- Generated by graphviz version 2.43.0 (0)
 -->
<!-- Title: complete Pages: 1 -->
<svg width="161pt" height="188pt"
 viewBox="0.00 0.00 160.68 188.00" xmlns="http://www.w3.org/2000/svg" xmlns:xlink="http://www.w3.org/1999/xlink">
<g id="graph0" class="graph" transform="scale(1 1) rotate(0) translate(4 184)">
<title>complete</title>
<polygon fill="white" stroke="transparent" points="-4,4 -4,-184 156.68,-184 156.68,4 -4,4"/>
<!-- a -->
<g id="node1" class="node">
<title>a</title>
<ellipse fill="none" stroke="black" cx="76.34" cy="-162" rx="27" ry="18"/>
<text text-anchor="middle" x="76.34" y="-158.3" font-family="Times,serif" font-size="14.00">a</text>
</g>
<!-- b -->
<g id="node2" class="node">
<title>b</title>
<ellipse fill="none" stroke="black" cx="40.34" cy="-90" rx="27" ry="18"/>
<text text-anchor="middle" x="40.34" y="-86.3" font-family="Times,serif" font-size="14.00">b</text>
</g>
<!-- a&#45;&#45;b -->
<g id="edge1" class="edge">
<title>a&#45;&#45;b</title>
<path fill="none" stroke="black" d="M67.99,-144.76C62.17,-133.46 54.45,-118.44 48.64,-107.15"/>
</g>
<!-- c -->
<g id="node3" class="node">
<title>c</title>
<ellipse fill="none" stroke="black" cx="40.34" cy="-18" rx="27" ry="18"/>
<text text-anchor="middle" x="40.34" y="-14.3" font-family="Times,serif" font-size="14.00">c</text>
</g>
<!-- a&#45;&#45;c -->
<g id="edge2" class="edge">
<title>a&#45;&#45;c</title>
<path fill="none" stroke="black" d="M54.24,-151.61C37.15,-143.01 14.7,-128.5 4.34,-108 -8.45,-82.71 11.62,-51.76 26.55,-33.82"/>
</g>
<!-- d -->
<g id="node4" class="node">
<title>d</title>
<ellipse fill="none" stroke="black" cx="112.34" cy="-18" rx="27" ry="18"/>
<text text-anchor="middle" x="112.34" y="-14.3" font-family="Times,serif" font-size="14.00">d</text>
</g>
<!-- a&#45;&#45;d -->
<g id="edge3" class="edge">
<title>a&#45;&#45;d</title>
<path fill="none" stroke="black" d="M98.44,-151.61C115.53,-143.01 137.97,-128.5 148.34,-108 161.12,-82.71 141.05,-51.76 126.13,-33.82"/>
</g>
<!-- e -->
<g id="node5" class="node">
<title>e</title>
<ellipse fill="none" stroke="black" cx="112.34" cy="-90" rx="27" ry="18"/>
<text text-anchor="middle" x="112.34" y="-86.3" font-family="Times,serif" font-size="14.00">e</text>
</g>
<!-- a&#45;&#45;e -->
<g id="edge4" class="edge">
<title>a&#45;&#45;e</title>
<path fill="none" stroke="black" d="M84.69,-144.76C90.5,-133.46 98.23,-118.44 104.03,-107.15"/>
</g>
<!-- b&#45;&#45;c -->
<g id="edge5" class="edge">
<title>b&#45;&#45;c</title>
<path fill="none" stroke="black" d="M40.34,-71.7C40.34,-60.85 40.34,-46.92 40.34,-36.1"/>
</g>
<!-- b&#45;&#45;d -->
<g id="edge6" class="edge">
<title>b&#45;&#45;d</title>
<path fill="none" stroke="black" d="M54.91,-74.83C67.32,-62.77 85.07,-45.51 97.54,-33.38"/>
</g>
<!-- b&#45;&#45;e -->
<g id="edge7" class="edge">
<title>b&#45;&#45;e</title>
<path fill="none" stroke="black" d="M67.34,-90C73.32,-90 79.29,-90 85.27,-90"/>
</g>
<!-- c&#45;&#45;d -->
<g id="edge8" class="edge">
<title>c&#45;&#45;d</title>
<path fill="none" stroke="black" d="M67.34,-18C73.32,-18 79.29,-18 85.27,-18"/>
</g>
<!-- c&#45;&#45;e -->
<g id="edge9" class="edge">
<title>c&#45;&#45;e</title>
<path fill="none" stroke="black" d="M55.13,-33.38C67.61,-45.51 85.36,-62.77 97.77,-74.83"/>
</g>
<!-- d&#45;&#45;e -->
<g id="edge10" class="edge">
<title>d&#45;&#45;e</title>
<path fill="none" stroke="black" d="M112.34,-36.1C112.34,-46.92 112.34,-60.85 112.34,-71.7"/>
</g>
</g>
</svg>
