<?xml version="1.0" encoding="UTF-8" standalone="no"?>
<!DOCTYPE svg PUBLIC "-//W3C//DTD SVG 1.1//EN"
 "http://www.w3.org/Graphics/SVG/1.1/DTD/svg11.dtd">
<!-- Generated by graphviz version 2.43.0 (0)
 -->
<!-- Title: dag Pages: 1 -->
<svg width="190pt" height="260pt"
 viewBox="0.00 0.00 189.62 260.00" xmlns="http://www.w3.org/2000/svg" xmlns:xlink="http://www.w3.org/1999/xlink">
<g id="graph0" class="graph" transform="scale(1 1) rotate(0) translate(4 256)">
<title>dag</title>
<polygon fill="white" stroke="transparent" points="-4,4 -4,-256 185.62,-256 185.62,4 -4,4"/>
<!-- a -->
<g id="node1" class="node">
<title>a</title>
<ellipse fill="none" stroke="black" cx="109" cy="-234" rx="27" ry="18"/>
<text text-anchor="middle" x="109" y="-230.3" font-family="Times,serif" font-size="14.00">a</text>
</g>
<!-- b -->
<g id="node2" class="node">
<title>b</title>
<ellipse fill="none" stroke="black" cx="27" cy="-162" rx="27" ry="18"/>
<text text-anchor="middle" x="27" y="-158.3" font-family="Times,serif" font-size="14.00">b</text>
</g>
<!-- a&#45;&gt;b -->
<g id="edge1" class="edge">
<title>a&#45;&gt;b</title>
<path fill="none" stroke="black" d="M92.8,-219.17C80.82,-208.94 64.31,-194.85 50.82,-183.34"/>
<polygon fill="black" stroke="black" points="52.77,-180.39 42.89,-176.56 48.22,-185.72 52.77,-180.39"/>
</g>
<!-- d -->
<g id="node3" class="node">
<title>d</title>
<ellipse fill="none" stroke="black" cx="82" cy="-90" rx="27" ry="18"/>
<text text-anchor="middle" x="82" y="-86.3" font-family="Times,serif" font-size="14.00">d</text>
</g>
<!-- a&#45;&gt;d -->
<g id="edge6" class="edge">
<title>a&#45;&gt;d</title>
<path fill="none" stroke="black" d="M105.74,-215.87C101.14,-191.67 92.69,-147.21 87.21,-118.39"/>
<polygon fill="black" stroke="black" points="90.57,-117.36 85.27,-108.19 83.7,-118.67 90.57,-117.36"/>
</g>
<!-- c -->
<g id="node4" class="node">
<title>c</title>
<ellipse fill="none" stroke="black" cx="137" cy="-162" rx="27" ry="18"/>
<text text-anchor="middle" x="137" y="-158.3" font-family="Times,serif" font-size="14.00">c</text>
</g>
<!-- a&#45;&gt;c -->
<g id="edge3" class="edge">
<title>a&#45;&gt;c</title>
<path fill="none" stroke="black" d="M115.64,-216.41C118.91,-208.22 122.94,-198.14 126.62,-188.95"/>
<polygon fill="black" stroke="black" points="129.95,-190.05 130.41,-179.47 123.45,-187.45 129.95,-190.05"/>
</g>
<!-- e -->
<g id="node5" class="node">
<title>e</title>
<ellipse fill="none" stroke="black" cx="137" cy="-18" rx="27" ry="18"/>
<text text-anchor="middle" x="137" y="-14.3" font-family="Times,serif" font-size="14.00">e</text>
</g>
<!-- a&#45;&gt;e -->
<g id="edge8" class="edge">
<title>a&#45;&gt;e</title>
<path fill="none" stroke="black" d="M129.95,-222.24C145.01,-213.22 164.16,-198.8 173,-180 194.3,-134.71 169.75,-76.23 152.01,-43.67"/>
<polygon fill="black" stroke="black" points="154.98,-41.81 147.01,-34.83 148.89,-45.25 154.98,-41.81"/>
</g>
<!-- b&#45;&gt;d -->
<g id="edge2" class="edge">
<title>b&#45;&gt;d</title>
<path fill="none" stroke="black" d="M38.93,-145.81C46.21,-136.55 55.66,-124.52 63.85,-114.09"/>
<polygon fill="black" stroke="black" points="66.66,-116.18 70.09,-106.16 61.16,-111.86 66.66,-116.18"/>
</g>
<!-- d&#45;&gt;e -->
<g id="edge7" class="edge">
<title>d&#45;&gt;e</title>
<path fill="none" stroke="black" d="M93.93,-73.81C101.21,-64.55 110.66,-52.52 118.85,-42.09"/>
<polygon fill="black" stroke="black" points="121.66,-44.18 125.09,-34.16 116.16,-39.86 121.66,-44.18"/>
</g>
<!-- c&#45;&gt;d -->
<g id="edge4" class="edge">
<title>c&#45;&gt;d</title>
<path fill="none" stroke="black" d="M125.07,-145.81C117.79,-136.55 108.34,-124.52 100.15,-114.09"/>
<polygon fill="black" stroke="black" points="102.84,-111.86 93.91,-106.16 97.34,-116.18 102.84,-111.86"/>
</g>
<!-- c&#45;&gt;e -->
<g id="edge5" class="edge">
<title>c&#45;&gt;e</title>
<path fill="none" stroke="black" d="M137,-143.87C137,-119.67 137,-75.21 137,-46.39"/>
<polygon fill="black" stroke="black" points="140.5,-46.19 137,-36.19 133.5,-46.19 140.5,-46.19"/>
</g>
</g>
</svg>
